<svg width="133" height="37" viewBox="0 0 133 37" fill="none" xmlns="http://www.w3.org/2000/svg">
<path d="M46.8389 14.6547H51.206C52.2533 14.6547 53.1373 14.4504 53.858 14.0417C54.5834 13.633 55.1335 13.0343 55.5083 12.2458C55.883 11.4524 56.0704 10.4884 56.0704 9.35362V9.3392C56.0704 8.25735 55.8806 7.33657 55.5011 6.57687C55.1215 5.81717 54.569 5.24018 53.8436 4.8459C53.1229 4.44682 52.2437 4.24728 51.206 4.24728H46.8389V9.45099V14.6547ZM49.4837 12.5271V6.37492H50.7304C51.2829 6.37492 51.7561 6.49272 52.1501 6.72833C52.5488 6.95912 52.8515 7.30051 53.0581 7.75248C53.2695 8.19965 53.3752 8.74538 53.3752 9.38969V9.40411C53.3752 10.0869 53.2719 10.6615 53.0653 11.1279C52.8635 11.5895 52.5656 11.9381 52.1717 12.1737C51.7825 12.4093 51.3021 12.5271 50.7304 12.5271H49.4837Z" fill="white"/>
<path d="M61.4608 14.8422C62.1046 14.8422 62.6547 14.7605 63.1111 14.597C63.5675 14.4335 63.9423 14.2244 64.2353 13.9695C64.5332 13.7147 64.7614 13.4454 64.92 13.1617C65.0833 12.8733 65.1914 12.6112 65.2443 12.3756L65.2659 12.2891L62.931 12.2963L62.9094 12.3251C62.8757 12.3924 62.8013 12.4814 62.686 12.592C62.5755 12.7026 62.4217 12.8035 62.2247 12.8949C62.0326 12.9814 61.7947 13.0247 61.5113 13.0247C61.1798 13.0247 60.8939 12.9526 60.6537 12.8083C60.4183 12.6593 60.2381 12.4453 60.1132 12.1664C59.9883 11.8876 59.9259 11.5534 59.9259 11.1639V10.1326C59.9259 9.73347 59.9883 9.39449 60.1132 9.11562C60.2429 8.83674 60.4207 8.62518 60.6465 8.48093C60.8723 8.33187 61.1342 8.25735 61.432 8.25735C61.7299 8.25735 61.9893 8.32947 62.2103 8.47372C62.4361 8.61796 62.6115 8.82953 62.7364 9.1084C62.8613 9.38247 62.9238 9.72386 62.9238 10.1326V11.1495L64.1056 9.72867H58.6791V11.2144H65.3163V10.4788C65.3163 9.66135 65.1554 8.94973 64.8335 8.34389C64.5116 7.73806 64.0552 7.26925 63.4643 6.93749C62.8733 6.60572 62.1743 6.43983 61.3672 6.43983C60.56 6.43983 59.861 6.61053 59.2701 6.95191C58.6791 7.28849 58.2203 7.77171 57.8936 8.40159C57.5717 9.02666 57.4108 9.77194 57.4108 10.6374V10.6446C57.4108 11.5149 57.5741 12.2626 57.9008 12.8877C58.2275 13.5127 58.6912 13.996 59.2917 14.3374C59.897 14.6739 60.6201 14.8422 61.4608 14.8422Z" fill="white"/>
<path d="M70.3248 14.8422C71.0503 14.8422 71.6893 14.7316 72.2418 14.5105C72.7943 14.2845 73.2243 13.9671 73.5317 13.5584C73.844 13.1449 74.0002 12.6617 74.0002 12.1087V12.1015C74.0002 11.5005 73.8056 11.0245 73.4164 10.6735C73.0273 10.3177 72.4171 10.0556 71.586 9.88734L70.2023 9.60606C69.8228 9.52912 69.5585 9.43536 69.4096 9.32477C69.2655 9.21419 69.1934 9.06753 69.1934 8.88482V8.8704C69.1934 8.72134 69.2367 8.59392 69.3231 8.48814C69.4144 8.38236 69.5393 8.30062 69.6979 8.24292C69.8612 8.18522 70.0462 8.15637 70.2528 8.15637C70.6035 8.15637 70.8773 8.2333 71.0743 8.38717C71.2713 8.53622 71.3914 8.6949 71.4346 8.86318L71.449 8.91367H73.7912V8.87761C73.7767 8.44487 73.6374 8.04578 73.3732 7.68036C73.1089 7.31012 72.715 7.01201 72.1913 6.78603C71.6725 6.55523 71.0263 6.43983 70.2528 6.43983C69.5369 6.43983 68.9148 6.54562 68.3863 6.75718C67.8578 6.96874 67.4494 7.26925 67.1612 7.65872C66.8729 8.04338 66.7288 8.50497 66.7288 9.04349V9.0507C66.7288 9.66135 66.9258 10.1662 67.3197 10.5653C67.7137 10.9596 68.2974 11.236 69.0709 11.3947L70.4546 11.676C70.8197 11.7481 71.0767 11.8419 71.2256 11.9573C71.3794 12.0727 71.4563 12.2241 71.4563 12.4117V12.4189C71.4563 12.5631 71.4106 12.6881 71.3193 12.7939C71.2281 12.8949 71.0983 12.9742 70.9302 13.0319C70.762 13.0896 70.5627 13.1185 70.332 13.1185C69.9621 13.1185 69.6739 13.0488 69.4673 12.9093C69.2607 12.7699 69.1189 12.5992 69.0421 12.3972L69.0277 12.354H66.5414V12.3972C66.5943 12.8636 66.7672 13.282 67.0603 13.6522C67.3582 14.0224 67.7785 14.3133 68.3214 14.5249C68.8643 14.7364 69.5321 14.8422 70.3248 14.8422Z" fill="white"/>
<path d="M75.6216 14.6547H78.1799V6.62736H75.6216V14.6547ZM76.9044 5.55993C77.2791 5.55993 77.5986 5.4301 77.8628 5.17046C78.1271 4.91082 78.2592 4.59588 78.2592 4.22564C78.2592 3.85541 78.1271 3.54047 77.8628 3.28082C77.5986 3.02118 77.2791 2.89136 76.9044 2.89136C76.5344 2.89136 76.2149 3.02118 75.9459 3.28082C75.6817 3.54047 75.5495 3.85541 75.5495 4.22564C75.5495 4.59588 75.6817 4.91082 75.9459 5.17046C76.2149 5.4301 76.5344 5.55993 76.9044 5.55993Z" fill="white"/>
<path d="M83.8298 17.4747C84.685 17.4747 85.4224 17.3473 86.0422 17.0925C86.6668 16.8376 87.1472 16.4746 87.4835 16.0034C87.8246 15.537 87.9952 14.9817 87.9952 14.3374V6.62736H85.4369V7.93279H85.336C85.2014 7.62987 85.0213 7.37263 84.7955 7.16107C84.5697 6.94951 84.3054 6.78843 84.0028 6.67784C83.7001 6.56244 83.3662 6.50475 83.0011 6.50475C82.3237 6.50475 81.7423 6.67063 81.2571 7.0024C80.7719 7.32936 80.3995 7.79095 80.1401 8.38717C79.8806 8.98339 79.7509 9.68299 79.7509 10.486V10.5004C79.7509 11.2697 79.8806 11.9429 80.1401 12.5198C80.3995 13.092 80.7695 13.5392 81.2499 13.8613C81.7303 14.1787 82.2996 14.3374 82.9578 14.3374C83.3326 14.3374 83.6713 14.2917 83.9739 14.2003C84.2766 14.1042 84.5409 13.9623 84.7667 13.7748C84.9925 13.5825 85.1726 13.3493 85.3071 13.0752H85.4441V14.5032C85.4441 14.9071 85.3095 15.2173 85.0405 15.4336C84.7715 15.6548 84.3919 15.7654 83.9019 15.7654C83.4791 15.7654 83.15 15.7053 82.9146 15.5851C82.684 15.4649 82.5422 15.3086 82.4894 15.1163L82.475 15.073H79.9815V15.1235C80.0392 15.5851 80.2218 15.9938 80.5292 16.3496C80.8367 16.7054 81.2667 16.9819 81.8192 17.179C82.3717 17.3762 83.0419 17.4747 83.8298 17.4747ZM83.9019 12.4549C83.58 12.4549 83.3037 12.3732 83.0731 12.2097C82.8473 12.0462 82.672 11.8178 82.5471 11.5245C82.4269 11.2312 82.3669 10.8875 82.3669 10.4932V10.4788C82.3669 10.0845 82.4269 9.74309 82.5471 9.4546C82.672 9.16129 82.8473 8.93531 83.0731 8.77664C83.3037 8.61316 83.58 8.53142 83.9019 8.53142C84.2286 8.53142 84.5072 8.61316 84.7378 8.77664C84.9732 8.93531 85.151 9.16129 85.2711 9.4546C85.396 9.7479 85.4585 10.0917 85.4585 10.486V10.5004C85.4585 10.8899 85.396 11.2312 85.2711 11.5245C85.151 11.8178 84.9732 12.0462 84.7378 12.2097C84.5072 12.3732 84.2286 12.4549 83.9019 12.4549Z" fill="white"/>
<path d="M89.9842 14.6547H92.5425V10.0676C92.5425 9.75992 92.5953 9.49066 92.701 9.25986C92.8067 9.02907 92.958 8.84876 93.155 8.71894C93.352 8.58911 93.5874 8.5242 93.8613 8.5242C94.2936 8.5242 94.6107 8.65643 94.8125 8.92088C95.0191 9.18053 95.1224 9.55317 95.1224 10.0388V14.6547H97.6807V9.46902C97.6807 8.50257 97.4501 7.75729 96.9889 7.23319C96.5325 6.70429 95.8599 6.43983 94.9711 6.43983C94.4041 6.43983 93.9237 6.57206 93.5298 6.83651C93.1406 7.09616 92.8571 7.44476 92.6794 7.8823H92.5425V6.62736H89.9842V14.6547Z" fill="white"/>
<path d="M46.8389 29.8821H49.4837V26.2471H50.7304C50.7496 26.2471 50.7688 26.2471 50.788 26.2471C50.812 26.2471 50.8337 26.2471 50.8529 26.2471L52.6329 29.8821H55.602L53.5265 25.8504C54.0934 25.6004 54.5306 25.2085 54.8381 24.6748C55.1456 24.1411 55.2993 23.5569 55.2993 22.9222V22.9078C55.2993 22.1913 55.148 21.5783 54.8453 21.0686C54.5426 20.5541 54.0982 20.1598 53.5121 19.8858C52.9308 19.6117 52.2125 19.4747 51.3573 19.4747H46.8389V29.8821ZM49.4837 24.4296V21.4725H51.0475C51.5231 21.4725 51.9002 21.6095 52.1789 21.8836C52.4575 22.1529 52.5969 22.5063 52.5969 22.9438V22.9582C52.5969 23.4102 52.4599 23.7684 52.1861 24.0329C51.9122 24.2973 51.5375 24.4296 51.0619 24.4296H49.4837Z" fill="white"/>
<path d="M60.6033 30.0696C61.4632 30.0696 62.1983 29.9037 62.8085 29.572C63.4186 29.2354 63.8846 28.7546 64.2065 28.1295C64.5332 27.4996 64.6966 26.7471 64.6966 25.872V25.8576C64.6966 24.9873 64.5308 24.2396 64.1993 23.6146C63.8726 22.9895 63.4018 22.5087 62.7868 22.1721C62.1767 21.8355 61.4488 21.6672 60.6033 21.6672C59.7625 21.6672 59.0371 21.8379 58.4269 22.1793C57.8168 22.5159 57.3459 22.9967 57.0144 23.6218C56.6829 24.2468 56.5172 24.9921 56.5172 25.8576V25.872C56.5172 26.7471 56.6781 27.4996 57 28.1295C57.3267 28.7546 57.7951 29.2354 58.4053 29.572C59.0202 29.9037 59.7529 30.0696 60.6033 30.0696ZM60.6033 28.1295C60.2958 28.1295 60.0316 28.0405 59.8106 27.8626C59.5896 27.6847 59.4214 27.4275 59.3061 27.0909C59.1908 26.7543 59.1331 26.348 59.1331 25.872V25.8576C59.1331 25.3912 59.1908 24.9921 59.3061 24.6604C59.4262 24.3238 59.5968 24.0641 59.8178 23.8814C60.0388 23.6987 60.3006 23.6073 60.6033 23.6073C60.9156 23.6073 61.1798 23.6987 61.396 23.8814C61.6122 24.0641 61.7779 24.3238 61.8932 24.6604C62.0133 24.9921 62.0734 25.3912 62.0734 25.8576V25.872C62.0734 26.3432 62.0157 26.7471 61.9004 27.0837C61.7851 27.4203 61.617 27.6799 61.396 27.8626C61.1798 28.0405 60.9156 28.1295 60.6033 28.1295Z" fill="white"/>
<path d="M68.9052 30.0696C69.4721 30.0696 69.9525 29.9398 70.3465 29.6801C70.7452 29.4157 71.0311 29.0647 71.204 28.6271H71.341V29.8821H73.8993V21.8547H71.341V26.4346C71.341 26.7423 71.2881 27.014 71.1824 27.2496C71.0815 27.4804 70.9302 27.6607 70.7284 27.7905C70.5314 27.9203 70.2912 27.9852 70.0078 27.9852C69.5754 27.9852 69.2583 27.8554 69.0565 27.5958C68.8595 27.3313 68.761 26.9563 68.761 26.4707V21.8547H66.2027V27.0404C66.2027 27.6799 66.3036 28.2281 66.5054 28.6848C66.712 29.1368 67.0147 29.4806 67.4134 29.7162C67.817 29.9518 68.3142 30.0696 68.9052 30.0696Z" fill="white"/>
<path d="M75.8738 29.8821H78.4321V25.295C78.4321 24.9873 78.485 24.7181 78.5907 24.4873C78.6964 24.2565 78.8477 24.0762 79.0447 23.9463C79.2417 23.8165 79.4771 23.7516 79.7509 23.7516C80.1833 23.7516 80.5004 23.8838 80.7022 24.1483C80.9088 24.4079 81.0121 24.7806 81.0121 25.2662V29.8821H83.5704V24.6964C83.5704 23.73 83.3398 22.9847 82.8786 22.4606C82.4221 21.9317 81.7495 21.6672 80.8607 21.6672C80.2938 21.6672 79.8134 21.7995 79.4194 22.0639C79.0303 22.3236 78.7468 22.6721 78.5691 23.1097H78.4321V21.8547H75.8738V29.8821Z" fill="white"/>
<path d="M88.2834 30.0047C88.8551 30.0047 89.3428 29.8869 89.7463 29.6513C90.1499 29.4157 90.4454 29.0839 90.6327 28.656H90.7697V29.8821H93.328V18.84H90.7697V23.1458H90.6327C90.4406 22.7034 90.1379 22.3572 89.7247 22.1072C89.3164 21.8572 88.8359 21.7321 88.2834 21.7321C87.606 21.7321 87.0295 21.8956 86.5539 22.2226C86.0782 22.5447 85.7131 23.0135 85.4585 23.629C85.2087 24.2444 85.0837 24.9873 85.0837 25.8576V25.872C85.0837 26.7375 85.2111 27.478 85.4657 28.0934C85.7251 28.7089 86.0951 29.1825 86.5755 29.5143C87.0559 29.8412 87.6252 30.0047 88.2834 30.0047ZM89.2275 27.9203C88.9104 27.9203 88.6365 27.8386 88.4059 27.6751C88.1753 27.5116 87.9952 27.2784 87.8654 26.9755C87.7405 26.6678 87.6781 26.3 87.6781 25.872V25.8576C87.6781 25.4393 87.7405 25.0787 87.8654 24.7758C87.9952 24.468 88.1753 24.2324 88.4059 24.0689C88.6413 23.9007 88.9152 23.8165 89.2275 23.8165C89.5446 23.8165 89.8184 23.8982 90.049 24.0617C90.2844 24.2252 90.467 24.4608 90.5967 24.7685C90.7264 25.0715 90.7913 25.4369 90.7913 25.8648V25.8792C90.7913 26.3024 90.7264 26.6678 90.5967 26.9755C90.4718 27.2784 90.2916 27.5116 90.0562 27.6751C89.8256 27.8386 89.5494 27.9203 89.2275 27.9203Z" fill="white"/>
<path d="M98.9707 29.8965C99.2157 29.8965 99.4463 29.8869 99.6625 29.8677C99.8835 29.8484 100.061 29.8244 100.196 29.7955V27.9636C100.104 27.9732 100.011 27.9828 99.9147 27.9925C99.8186 27.9973 99.6985 27.9997 99.5544 27.9997C99.2229 27.9997 98.9779 27.9251 98.8193 27.7761C98.6656 27.627 98.5887 27.4035 98.5887 27.1053V23.73H100.196V21.8547H98.5887V20.0156H96.0232V21.8547H94.7981V23.73H96.0232V27.6823C96.0232 28.4661 96.2514 29.031 96.7078 29.3772C97.1642 29.7234 97.9185 29.8965 98.9707 29.8965Z" fill="white"/>
<path d="M104.058 30.0047C104.4 30.0047 104.717 29.959 105.01 29.8677C105.308 29.7763 105.565 29.6465 105.781 29.4782C106.002 29.3099 106.172 29.1128 106.292 28.8868H106.429V29.8821H108.937V24.4079C108.937 23.8309 108.803 23.3381 108.534 22.9294C108.265 22.5207 107.871 22.2082 107.352 21.9918C106.838 21.7754 106.208 21.6672 105.464 21.6672C104.743 21.6672 104.114 21.7706 103.576 21.9774C103.038 22.1793 102.612 22.463 102.3 22.8284C101.993 23.1938 101.815 23.6242 101.767 24.1194L101.76 24.206H104.073L104.087 24.1699C104.164 23.9728 104.303 23.8189 104.505 23.7083C104.712 23.5977 104.983 23.5424 105.32 23.5424C105.67 23.5424 105.942 23.6194 106.134 23.7732C106.331 23.9223 106.429 24.1339 106.429 24.4079V26.9972C106.429 27.228 106.365 27.4371 106.235 27.6246C106.11 27.8073 105.939 27.954 105.723 28.0646C105.512 28.1704 105.272 28.2233 105.002 28.2233C104.681 28.2233 104.421 28.1487 104.224 27.9997C104.027 27.8506 103.929 27.6511 103.929 27.401V27.3866C103.929 27.1462 104.027 26.9539 104.224 26.8096C104.421 26.6654 104.707 26.5812 105.082 26.5572L107.683 26.3913V24.9561L104.678 25.1364C103.645 25.1989 102.853 25.4393 102.3 25.8576C101.748 26.2711 101.471 26.8409 101.471 27.5669V27.5814C101.471 28.067 101.579 28.4925 101.796 28.8579C102.017 29.2186 102.322 29.4998 102.711 29.7018C103.1 29.9037 103.549 30.0047 104.058 30.0047Z" fill="white"/>
<path d="M116 30.0047C116.667 30.0047 117.239 29.8412 117.715 29.5143C118.19 29.1825 118.558 28.7089 118.817 28.0934C119.077 27.478 119.206 26.7375 119.206 25.872V25.8576C119.206 24.9873 119.079 24.2444 118.825 23.629C118.575 23.0135 118.21 22.5447 117.729 22.2226C117.254 21.8956 116.677 21.7321 116 21.7321C115.452 21.7321 114.971 21.8572 114.558 22.1072C114.15 22.3572 113.847 22.7034 113.65 23.1458H113.513V18.84H110.955V29.8821H113.513V28.656H113.65C113.842 29.0839 114.14 29.4157 114.544 29.6513C114.947 29.8869 115.433 30.0047 116 30.0047ZM115.056 27.9203C114.738 27.9203 114.462 27.8386 114.227 27.6751C113.996 27.5116 113.816 27.2784 113.686 26.9755C113.561 26.6678 113.499 26.3024 113.499 25.8792V25.8648C113.499 25.4369 113.564 25.0715 113.694 24.7685C113.823 24.4608 114.003 24.2252 114.234 24.0617C114.469 23.8982 114.743 23.8165 115.056 23.8165C115.373 23.8165 115.646 23.9007 115.877 24.0689C116.113 24.2324 116.293 24.468 116.418 24.7758C116.542 25.0787 116.605 25.4393 116.605 25.8576V25.872C116.605 26.3 116.542 26.6678 116.418 26.9755C116.293 27.2784 116.113 27.5116 115.877 27.6751C115.646 27.8386 115.373 27.9203 115.056 27.9203Z" fill="white"/>
<path d="M120.871 29.8821H123.43V18.84H120.871V29.8821Z" fill="white"/>
<path d="M129.144 30.0696C129.788 30.0696 130.338 29.9879 130.795 29.8244C131.251 29.6609 131.626 29.4518 131.919 29.1969C132.217 28.9421 132.445 28.6728 132.603 28.3891C132.767 28.1006 132.875 27.8386 132.928 27.603L132.949 27.5164L130.614 27.5237L130.593 27.5525C130.559 27.6198 130.485 27.7088 130.369 27.8194C130.259 27.93 130.105 28.0309 129.908 28.1223C129.716 28.2088 129.478 28.2521 129.195 28.2521C128.863 28.2521 128.577 28.18 128.337 28.0357C128.102 27.8867 127.922 27.6727 127.797 27.3938C127.672 27.115 127.609 26.7808 127.609 26.3913V25.36C127.609 24.9609 127.672 24.6219 127.797 24.343C127.926 24.0641 128.104 23.8526 128.33 23.7083C128.556 23.5593 128.818 23.4847 129.115 23.4847C129.413 23.4847 129.673 23.5569 129.894 23.7011C130.12 23.8454 130.295 24.0569 130.42 24.3358C130.545 24.6099 130.607 24.9513 130.607 25.36V26.3769L131.789 24.9561H126.363V26.4418H133V25.7061C133 24.8887 132.839 24.1771 132.517 23.5713C132.195 22.9655 131.739 22.4966 131.148 22.1649C130.557 21.8331 129.858 21.6672 129.051 21.6672C128.243 21.6672 127.544 21.8379 126.953 22.1793C126.363 22.5159 125.904 22.9991 125.577 23.629C125.255 24.2541 125.094 24.9993 125.094 25.8648V25.872C125.094 26.7423 125.258 27.49 125.584 28.1151C125.911 28.7401 126.375 29.2234 126.975 29.5648C127.58 29.9013 128.303 30.0696 129.144 30.0696Z" fill="white"/>
<path d="M0 10.4086C0 6.57624 3.10675 3.46948 6.93913 3.46948H26.0217C29.8541 3.46948 32.9609 6.57624 32.9609 10.4086V29.4912C32.9609 33.3236 29.8541 36.4304 26.0217 36.4304H6.93913C3.10675 36.4304 0 33.3236 0 29.4912V10.4086Z" fill="white"/>
<path d="M3.46973 6.93913C3.46973 3.10675 6.57648 0 10.4089 0H29.4915C33.3238 0 36.4306 3.10675 36.4306 6.93913V26.0217C36.4306 29.8541 33.3238 32.9609 29.4915 32.9609H10.4089C6.57648 32.9609 3.46973 29.8541 3.46973 26.0217V6.93913Z" fill="black"/>
<path fill-rule="evenodd" clip-rule="evenodd" d="M29.4915 1.15652H10.4089C7.21521 1.15652 4.62625 3.74548 4.62625 6.93913V26.0217C4.62625 29.2154 7.21521 31.8043 10.4089 31.8043H29.4915C32.6851 31.8043 35.2741 29.2154 35.2741 26.0217V6.93913C35.2741 3.74548 32.6851 1.15652 29.4915 1.15652ZM10.4089 0C6.57648 0 3.46973 3.10675 3.46973 6.93913V26.0217C3.46973 29.8541 6.57648 32.9609 10.4089 32.9609H29.4915C33.3238 32.9609 36.4306 29.8541 36.4306 26.0217V6.93913C36.4306 3.10675 33.3238 0 29.4915 0H10.4089Z" fill="white"/>
<path d="M16.7695 13.8782C16.7695 13.2395 17.2873 12.7217 17.9261 12.7217H22.5521C23.1909 12.7217 23.7087 13.2395 23.7087 13.8782V18.5043C23.7087 19.143 23.1909 19.6608 22.5521 19.6608H17.9261C17.2873 19.6608 16.7695 19.143 16.7695 18.5043V13.8782Z" fill="white"/>
</svg>
